<?xml version="1.0" encoding="utf-8"?>
<svg xmlns="http://www.w3.org/2000/svg" style="margin: auto; background: none; display: block; shape-rendering: auto;" width="280" height="58" preserveAspectRatio="xMidYMid">
<style type="text/css">
  text {
    text-anchor: middle; font-size: 55px; opacity: 0;
  }
</style>
<g style="transform-origin:140px 29px;transform:scale(1)">
<g transform="translate(140,29)">
  <g transform="translate(0,0)"><g class="path" style="transform: scale(0.91); transform-origin: -53.32px -5.13895px; animation: 1s linear -0.5775s infinite normal forwards running breath-34c5bd62-9aa3-493c-901c-bcf656fc4b8d;"><path d="M15.95-31.52L15.95-31.52L15.95-31.52Q11.61-26.07 9.68-20.63L9.68-20.63L9.73-20.63L9.73-20.63Q17.38-20.63 18.51-20.60L18.51-20.60L18.51-20.60Q19.64-20.57 19.75-20.68L19.75-20.68L19.75-20.68Q19.86-20.79 19.91-20.96L19.91-20.96L19.91-20.96Q18.98-27.72 18.43-30.17L18.43-30.17L18.43-30.17Q17.88-32.62 17.32-32.62L17.32-32.62L17.32-32.62Q16.77-32.62 15.95-31.52zM11.05-5.61L11.05-5.61L12.27-5.83L12.27-5.83Q12.81-5.83 12.81-5.22L12.81-5.22L12.81-5.22Q12.81-3.30 12.04-1.98L12.04-1.98L12.04-1.98Q11.28-0.66 10.12-0.11L10.12-0.11L10.12-0.11Q8.25 0.82 6.93 0.82L6.93 0.82L6.93 0.82Q4.40 0.82 3.14-1.07L3.14-1.07L3.14-1.07Q1.87-2.97 1.87-6.79L1.87-6.79L1.87-6.79Q1.87-10.62 3.96-16.72L3.96-16.72L0.77-16.72L0.77-16.72Q0.17-16.72 0.17-17.32L0.17-17.32L0.17-17.32Q0.17-17.93 1.10-19.28L1.10-19.28L1.10-19.28Q2.04-20.63 3.08-20.63L3.08-20.63L5.55-20.63L5.55-20.63Q9.46-29.32 14.74-35.64L14.74-35.64L14.74-35.64Q16.11-37.29 18.12-38.72L18.12-38.72L18.12-38.72Q20.13-40.15 21.23-40.15L21.23-40.15L21.23-40.15Q22.33-40.15 22.88-39.16L22.88-39.16L22.88-39.16Q24.31-36.85 26.23-22.27L26.23-22.27L26.23-22.27Q26.89-16.00 28.52-9.32L28.52-9.32L28.52-9.32Q30.14-2.64 31.52-1.54L31.52-1.54L31.52-1.54Q31.84-1.32 31.84-0.99L31.84-0.99L31.84-0.99Q31.84-0.17 29.51 0.55L29.51 0.55L29.51 0.55Q27.17 1.26 25.93 1.26L25.93 1.26L25.93 1.26Q24.70 1.26 24.04 0.96L24.04 0.96L24.04 0.96Q23.38 0.66 23.21 0.33L23.21 0.33L23.21 0.33Q22.22-1.81 21.23-9.90L21.23-9.90L20.90-12.48L20.90-12.48Q20.68-15.07 20.46-16.39L20.46-16.39L20.07-16.66L8.58-16.72L8.58-16.72Q7.92-13.92 7.92-11.82L7.92-11.82L7.92-11.82Q7.92-9.73 8.06-8.77L8.06-8.77L8.06-8.77Q8.20-7.81 8.96-6.71L8.96-6.71L8.96-6.71Q9.73-5.61 11.05-5.61" fill="#31395a" stroke="none" stroke-width="none" transform="translate(-69.32501888275146,14.306048134565353)" style="fill: rgb(49, 57, 90);"></path></g><g class="path" style="transform: scale(0.91); transform-origin: -27.77px 2.29105px; animation: 1s linear -0.495s infinite normal forwards running breath-34c5bd62-9aa3-493c-901c-bcf656fc4b8d;"><path d="M50.60-6.33L50.60-6.33L50.60-6.33Q50.60-3.19 48.10-1.13L48.10-1.13L48.10-1.13Q45.59 0.94 42.13 0.94L42.13 0.94L42.13 0.94Q37.07 0.94 34.70-2.12L34.70-2.12L34.70-2.12Q32.34-5.17 32.34-10.39L32.34-10.39L32.34-10.39Q32.34-15.95 34.81-20.24L34.81-20.24L34.81-20.24Q36.02-22.44 38.28-23.71L38.28-23.71L38.28-23.71Q40.53-24.97 43.56-24.97L43.56-24.97L43.56-24.97Q48.13-24.97 50.00-21.89L50.00-21.89L50.00-21.89Q50.77-20.63 50.77-18.92L50.77-18.92L50.77-18.92Q50.77-16.28 48.56-14.96L48.56-14.96L48.56-14.96Q47.69-14.46 46.94-14.46L46.94-14.46L46.94-14.46Q46.20-14.46 45.73-14.55L45.73-14.55L45.73-14.55Q45.27-14.63 44.49-15.29L44.49-15.29L44.49-15.29Q43.73-15.95 43.73-17.11L43.73-17.11L43.73-17.11Q43.78-17.71 44.66-18.09L44.66-18.09L44.66-18.09Q45.48-18.59 45.48-19.86L45.48-19.86L45.48-19.86Q45.48-22 42.84-22L42.84-22L42.84-22Q42.19-22 41.28-21.42L41.28-21.42L41.28-21.42Q40.37-20.84 39.77-19.94L39.77-19.94L39.77-19.94Q39.16-19.03 38.64-17.08L38.64-17.08L38.64-17.08Q38.12-15.13 38.12-13.34L38.12-13.34L38.12-13.34Q38.12-11.55 38.25-10.64L38.25-10.64L38.25-10.64Q38.39-9.73 38.86-8.17L38.86-8.17L38.86-8.17Q39.33-6.60 40.62-5.61L40.62-5.61L40.62-5.61Q41.91-4.62 43.84-4.62L43.84-4.62L43.84-4.62Q46.14-4.62 47.91-6.54L47.91-6.54L47.91-6.54Q48.62-7.32 49.06-8.42L49.06-8.42L49.06-8.42Q49.28-8.86 49.61-8.86L49.61-8.86L49.61-8.86Q50.11-8.86 50.35-7.95L50.35-7.95L50.35-7.95Q50.60-7.04 50.60-6.33" fill="#31395a" stroke="none" stroke-width="none" transform="translate(-69.32501888275146,14.306048134565353)" style="fill: rgb(29, 32, 49);"></path></g><g class="path" style="transform: scale(0.91); transform-origin: -10.475px -1.06895px; animation: 1s linear -0.4125s infinite normal forwards running breath-34c5bd62-9aa3-493c-901c-bcf656fc4b8d;"><path d="M52.69-21.45L52.69-21.45L52.85-23.65L52.85-23.65Q52.91-24.14 53.62-24.14L53.62-24.14L55.55-24.14L55.33-28.55L55.33-28.77L55.33-28.77Q55.33-30.03 57.25-31.18L57.25-31.18L57.25-31.18Q59.18-32.34 60.77-32.34L60.77-32.34L60.77-32.34Q61.27-32.34 61.27-31.90L61.27-31.90L61.27-31.84L61.27-31.84Q61.05-30.36 60.83-24.20L60.83-24.20L60.83-24.20Q63.25-24.20 63.91-24.31L63.91-24.31L63.91-24.31Q64.57-24.42 64.63-24.42L64.63-24.42L64.63-24.42Q65.01-24.42 65.01-23.76L65.01-23.76L65.01-23.76Q65.01-23.10 64.41-22.08L64.41-22.08L64.41-22.08Q63.80-21.07 63.08-21.01L63.08-21.01L60.77-21.01L60.77-21.01Q60.72-19.14 60.72-14.71L60.72-14.71L60.72-14.71Q60.72-10.29 60.80-7.42L60.80-7.42L60.80-7.42Q60.88-4.57 60.99-3.11L60.99-3.11L60.99-3.11Q61.10-1.65 61.24-0.77L61.24-0.77L61.24-0.77Q61.38 0.11 61.46 0.49L61.46 0.49L61.46 0.49Q61.54 0.88 61.54 0.99L61.54 0.99L61.54 0.99Q61.54 1.54 60.83 1.59L60.83 1.59L60.83 1.59Q58.68 1.59 56.57 0.99L56.57 0.99L56.57 0.99Q54.45 0.39 54.45-1.10L54.45-1.10L54.45-1.10Q55.60-10.34 55.60-20.96L55.60-20.96L55.60-20.96Q54.12-20.96 53.35-20.84L53.35-20.84L53.29-20.84L53.29-20.84Q52.80-20.84 52.69-21.45" fill="#31395a" stroke="none" stroke-width="none" transform="translate(-69.32501888275146,14.306048134565353)" style="fill: rgb(92, 96, 126);"></path></g><g class="path" style="transform: scale(0.91); transform-origin: 1.18498px -17.399px; animation: 1s linear -0.33s infinite normal forwards running breath-34c5bd62-9aa3-493c-901c-bcf656fc4b8d;"><path d="M71.50-29.43L71.50-29.43L70.18-29.48L70.18-29.48Q68.70-29.48 68.25-28.77L68.25-28.77L68.25-28.77Q68.14-28.60 67.98-28.60L67.98-28.60L67.98-28.60Q67.27-28.60 67.27-31.05L67.27-31.05L67.27-31.05Q67.27-33.49 68.01-34.16L68.01-34.16L68.01-34.16Q68.75-34.81 70.59-34.81L70.59-34.81L70.59-34.81Q72.44-34.81 73.09-34.18L73.09-34.18L73.09-34.18Q73.75-33.55 73.75-32.06L73.75-32.06L73.75-32.06Q73.75-30.58 73.26-30.00L73.26-30.00L73.26-30.00Q72.77-29.43 71.50-29.43" fill="#31395a" stroke="none" stroke-width="none" transform="translate(-69.32501888275146,14.306048134565353)" style="fill: rgb(168, 164, 185);"></path></g><g class="path" style="transform: scale(0.91); transform-origin: 0.469978px 2.51105px; animation: 1s linear -0.2475s infinite normal forwards running breath-34c5bd62-9aa3-493c-901c-bcf656fc4b8d;"><path d="M67.10-1.65L67.10-1.65L67.70-14.46L67.70-14.46Q67.70-19.03 66.66-20.68L66.66-20.68L66.66-20.68Q66.33-21.23 65.89-21.50L65.89-21.50L65.89-21.50Q65.56-21.61 65.56-21.95L65.56-21.95L65.56-21.95Q65.56-22.93 68.37-23.87L68.37-23.87L68.37-23.87Q71.17-24.80 72.46-24.80L72.46-24.80L72.46-24.80Q73.75-24.80 73.81-24.14L73.81-24.14L73.81-24.14Q73.81-23.05 73.51-17.90L73.51-17.90L73.51-17.90Q73.20-12.76 73.20-7.09L73.20-7.09L73.20-7.09Q73.20-1.43 73.87-0.06L73.87-0.06L73.87-0.06Q74.03 0.22 74.03 0.49L74.03 0.49L74.03 0.49Q74.03 1.21 71.94 1.21L71.94 1.21L71.94 1.21Q69.85 1.21 67.65 0.11L67.65 0.11L67.65 0.11Q67.10-0.17 67.10-1.65" fill="#31395a" stroke="none" stroke-width="none" transform="translate(-69.32501888275146,14.306048134565353)" style="fill: rgb(201, 197, 213);"></path></g><g class="path" style="transform: scale(0.91); transform-origin: 17.93px 2.42605px; animation: 1s linear -0.165s infinite normal forwards running breath-34c5bd62-9aa3-493c-901c-bcf656fc4b8d;"><path d="M82.61-20.73L82.61-20.73L82.61-20.73Q81.18-20.68 80.55-20.65L80.55-20.65L80.55-20.65Q79.91-20.63 79.91-20.96L79.91-20.96L79.91-20.96Q79.91-21.29 80.24-21.61L80.24-21.61L80.24-21.61Q83.76-24.86 92.13-24.86L92.13-24.86L92.13-24.86Q94.98-24.86 96.63-24.36L96.63-24.36L97.18-24.20L97.18-24.20Q97.84-23.93 97.84-23.59L97.84-23.59L97.84-23.59Q97.84-23.32 97.46-23.16L97.46-23.16L97.46-23.16Q95.97-22.71 94.60-21.75L94.60-21.75L94.60-21.75Q93.22-20.79 93.22-20.41L93.22-20.41L93.55-20.02L93.55-20.02Q95.31-19.03 96.28-16.89L96.28-16.89L96.28-16.89Q97.24-14.74 97.35-13.09L97.35-13.09L97.46-11.38L97.46-11.38Q97.46-5.94 94.43-2.42L94.43-2.42L94.43-2.42Q91.41 1.10 86.18 1.10L86.18 1.10L86.18 1.10Q83.54 1.10 81.62 0.17L81.62 0.17L81.62 0.17Q79.69-0.77 78.79-1.95L78.79-1.95L78.79-1.95Q77.88-3.14 77.33-4.62L77.33-4.62L77.33-4.62Q76.67-6.66 76.67-8.83L76.67-8.83L76.67-8.83Q76.67-11 77.41-13.20L77.41-13.20L77.41-13.20Q78.15-15.40 79.12-16.45L79.12-16.45L79.12-16.45Q80.08-17.49 81.29-18.15L81.29-18.15L81.29-18.15Q82.83-18.98 83.76-18.98L83.76-18.98L83.76-18.98Q84.70-18.98 84.70-18.59L84.70-18.59L84.37-18.04L84.37-18.04Q83.16-16.61 82.64-14.30L82.64-14.30L82.64-14.30Q82.11-11.99 82.11-10.20L82.11-10.20L82.11-10.20Q82.11-8.42 82.55-6.66L82.55-6.66L82.55-6.66Q82.99-4.90 83.54-4.04L83.54-4.04L83.54-4.04Q84.09-3.19 84.81-2.75L84.81-2.75L84.81-2.75Q85.85-2.09 87.01-2.09L87.01-2.09L87.01-2.09Q88.16-2.09 89.26-3.00L89.26-3.00L89.26-3.00Q90.36-3.90 90.86-5.39L90.86-5.39L90.86-5.39Q91.85-8.14 91.85-11.05L91.85-11.05L91.85-11.05Q91.85-15.68 89.51-18.21L89.51-18.21L89.51-18.21Q87.17-20.73 82.61-20.73" fill="#31395a" stroke="none" stroke-width="none" transform="translate(-69.32501888275146,14.306048134565353)" style="fill: rgb(12, 11, 13);"></path></g><g class="path" style="transform: scale(0.91); transform-origin: 40.89px 2.28605px; animation: 1s linear -0.0825s infinite normal forwards running breath-34c5bd62-9aa3-493c-901c-bcf656fc4b8d;"><path d="M100.15 0.39L100.15 0.39L100.15 0.39Q101.14-5.55 101.14-13.86L101.14-13.86L101.14-13.86Q101.14-22.16 100.65-24.64L100.65-24.64L100.65-24.64Q100.65-25.36 102.30-25.36L102.30-25.36L102.30-25.36Q104.83-25.36 105.65-23.43L105.65-23.43L105.65-23.43Q105.71-23.27 105.93-23.27L105.93-23.27L105.93-23.27Q106.15-23.27 106.26-23.38L106.26-23.38L106.26-23.38Q107.96-25.14 111.54-25.14L111.54-25.14L111.54-25.14Q115.11-25.14 117.20-23.32L117.20-23.32L117.20-23.32Q119.29-21.50 119.29-18.04L119.29-18.04L119.29-18.04Q119.29-15.95 118.94-12.10L118.94-12.10L118.94-12.10Q118.58-8.25 118.58-6.38L118.58-6.38L118.58-6.38Q118.58-1.93 120.06 0.06L120.06 0.06L120.06 0.06Q120.28 0.33 120.28 0.60L120.28 0.60L120.28 0.60Q120.28 1.32 118.74 1.32L118.74 1.32L118.74 1.32Q111.92 1.32 111.92-4.73L111.92-4.73L111.92-4.73Q111.92-7.04 112.97-11.17L112.97-11.17L112.97-11.17Q114.01-15.29 114.01-17.43L114.01-17.43L114.01-17.43Q114.01-21.84 110.38-21.84L110.38-21.84L110.38-21.84Q108.62-21.84 107.72-20.79L107.72-20.79L107.72-20.79Q106.81-19.75 106.70-18.40L106.70-18.40L106.70-18.40Q106.59-17.05 106.59-13.31L106.59-13.31L106.59-13.31Q106.59-7.59 106.97-3.35L106.97-3.35L107.08-2.15L107.08-2.15Q107.08-0.60 105.08 0.25L105.08 0.25L105.08 0.25Q103.07 1.10 101.61 1.10L101.61 1.10L101.61 1.10Q100.15 1.10 100.15 0.39" fill="#31395a" stroke="none" stroke-width="none" transform="translate(-69.32501888275146,14.306048134565353)" style="fill: rgb(49, 57, 90);"></path></g><g class="path" style="transform: scale(0.91); transform-origin: 60.585px 2.43105px; animation: 1s linear 0s infinite normal forwards running breath-34c5bd62-9aa3-493c-901c-bcf656fc4b8d;"><path d="M138.82-7.54L138.82-7.54L138.82-7.54Q138.82-5.17 137.91-3.41L137.91-3.41L137.91-3.41Q137.00-1.65 135.85-0.82L135.85-0.82L135.85-0.82Q134.69 0 133.10 0.49L133.10 0.49L133.10 0.49Q131.01 1.16 129.30 1.16L129.30 1.16L129.30 1.16Q125.73 1.16 123.36-0.25L123.36-0.25L123.36-0.25Q121.00-1.65 121.00-4.73L121.00-4.73L121.00-4.73Q121.00-6.54 121.99-7.70L121.99-7.70L121.99-7.70Q123.53-9.40 125.67-9.40L125.67-9.40L125.67-9.40Q126.33-9.40 126.33-8.80L126.33-8.80L126.33-8.80Q126.33-8.74 126.09-7.95L126.09-7.95L126.09-7.95Q125.84-7.15 125.84-5.94L125.84-5.94L125.84-5.94Q125.84-4.73 126.80-3.79L126.80-3.79L126.80-3.79Q127.76-2.86 129.14-2.86L129.14-2.86L129.14-2.86Q130.51-2.86 131.34-3.33L131.34-3.33L131.34-3.33Q132.16-3.79 132.49-4.51L132.49-4.51L132.49-4.51Q132.99-5.50 132.99-6.38L132.99-6.38L132.99-6.38Q132.99-7.97 131.39-9.13L131.39-9.13L131.39-9.13Q129.80-10.29 127.87-10.95L127.87-10.95L127.87-10.95Q125.95-11.61 124.35-13.14L124.35-13.14L124.35-13.14Q122.76-14.69 122.76-17.00L122.76-17.00L122.76-17.00Q122.76-20.96 125.26-22.93L125.26-22.93L125.26-22.93Q127.76-24.91 132.05-24.91L132.05-24.91L132.05-24.91Q133.92-24.91 135.99-24.39L135.99-24.39L135.99-24.39Q138.05-23.87 138.05-22.63L138.05-22.63L138.05-22.63Q138.05-21.39 137.64-20.35L137.64-20.35L137.64-20.35Q137.22-19.30 136.62-19.30L136.62-19.30L136.62-19.30Q136.29-19.30 136.18-19.55L136.18-19.55L136.18-19.55Q136.07-19.80 135.79-20.13L135.79-20.13L135.79-20.13Q135.52-20.46 134.47-20.98L134.47-20.98L134.47-20.98Q133.43-21.50 132.69-21.50L132.69-21.50L132.69-21.50Q131.94-21.50 131.70-21.48L131.70-21.48L131.70-21.48Q131.45-21.45 130.84-21.31L130.84-21.31L130.84-21.31Q130.24-21.18 129.74-20.90L129.74-20.90L129.74-20.90Q128.48-20.18 128.48-18.81L128.48-18.81L128.48-18.81Q128.48-17.93 128.86-17.52L128.86-17.52L128.86-17.52Q129.25-17.11 129.47-16.89L129.47-16.89L129.47-16.89Q129.69-16.66 130.24-16.36L130.24-16.36L130.24-16.36Q130.79-16.06 131.01-15.95L131.01-15.95L131.01-15.95Q131.23-15.84 132-15.48L132-15.48L132-15.48Q132.77-15.13 132.99-15.02L132.99-15.02L132.99-15.02Q138.82-12.27 138.82-7.54" fill="#31395a" stroke="none" stroke-width="none" transform="translate(-69.32501888275146,14.306048134565353)" style="fill: rgb(29, 32, 49);"></path></g></g>
</g>
</g>
<style id="breath-34c5bd62-9aa3-493c-901c-bcf656fc4b8d" data-anikit="">@keyframes breath-34c5bd62-9aa3-493c-901c-bcf656fc4b8d
{
  0% {
    animation-timing-function: cubic-bezier(0.9647,0.2413,-0.0705,0.7911);
    transform: scale(0.9099999999999999);
  }
  51% {
    animation-timing-function: cubic-bezier(0.9226,0.2631,-0.0308,0.7628);
    transform: scale(1.02994);
  }
  100% {
    transform: scale(0.9099999999999999);
  }
}</style></svg>