<?xml version="1.0" encoding="utf-8"?>
<svg xmlns="http://www.w3.org/2000/svg" style="margin: auto; background: none; display: block; shape-rendering: auto;" width="280" height="58" preserveAspectRatio="xMidYMid">
<style type="text/css">
  text {
    text-anchor: middle; font-size: 55px; opacity: 0;
  }
</style>
<g style="transform-origin: 140px 29px; transform: scale(0.6875);">
<g transform="translate(140,29)">
  <g transform="translate(0,0)"><g class="path" style="transform: scale(0.91); transform-origin: -70.685px -6.12205px; animation: 1s linear -0.495s infinite normal forwards running breath-34c5bd62-9aa3-493c-901c-bcf656fc4b8d;"><path d="M58.16-15.27L58.16-15.27L58.16-15.27Q58.16-12.89 57.38-10.82L57.38-10.82L57.38-10.82Q56.60-8.75 55.23-7.05L55.23-7.05L55.23-7.05Q53.87-5.35 52.05-4.02L52.05-4.02L52.05-4.02Q50.23-2.70 48.14-1.80L48.14-1.80L48.14-1.80Q46.05-0.90 43.83-0.45L43.83-0.45L43.83-0.45Q41.60 0 39.45 0L39.45 0L6.37 0L6.37-56.25L36.60-56.25L36.60-56.25Q38.59-56.25 40.78-55.96L40.78-55.96L40.78-55.96Q42.97-55.66 45.06-55.04L45.06-55.04L45.06-55.04Q47.15-54.41 49.04-53.40L49.04-53.40L49.04-53.40Q50.94-52.38 52.36-50.92L52.36-50.92L52.36-50.92Q53.79-49.45 54.63-47.54L54.63-47.54L54.63-47.54Q55.47-45.63 55.47-43.16L55.47-43.16L55.47-43.16Q55.47-40.82 54.53-38.91L54.53-38.91L54.53-38.91Q53.59-36.99 52.01-35.49L52.01-35.49L52.01-35.49Q50.43-33.98 48.38-32.83L48.38-32.83L48.38-32.83Q46.33-31.68 44.06-30.82L44.06-30.82L44.06-30.82Q46.91-30.04 49.47-28.75L49.47-28.75L49.47-28.75Q52.03-27.46 53.96-25.59L53.96-25.59L53.96-25.59Q55.90-23.71 57.03-21.15L57.03-21.15L57.03-21.15Q58.16-18.59 58.16-15.27zM39.73-41.80L39.73-41.80L39.73-41.80Q39.73-46.56 37.21-48.75L37.21-48.75L37.21-48.75Q34.69-50.94 30.04-50.94L30.04-50.94L21.88-50.94L21.88-32.70L28.71-32.70L28.71-32.70Q30.82-32.70 32.81-33.22L32.81-33.22L32.81-33.22Q34.80-33.75 36.35-34.86L36.35-34.86L36.35-34.86Q37.89-35.98 38.81-37.70L38.81-37.70L38.81-37.70Q39.73-39.41 39.73-41.80zM42.46-16.25L42.46-16.25L42.46-16.25Q42.46-18.55 41.88-20.57L41.88-20.57L41.88-20.57Q41.29-22.58 40.08-24.04L40.08-24.04L40.08-24.04Q38.87-25.51 37.05-26.35L37.05-26.35L37.05-26.35Q35.23-27.19 32.77-27.19L32.77-27.19L21.88-27.19L21.88-5.47L31.41-5.47L31.41-5.47Q33.79-5.47 35.82-6.25L35.82-6.25L35.82-6.25Q37.85-7.03 39.34-8.44L39.34-8.44L39.34-8.44Q40.82-9.84 41.64-11.84L41.64-11.84L41.64-11.84Q42.46-13.83 42.46-16.25" fill="#31395a" stroke="none" stroke-width="none" transform="translate(-102.95000076293945,22.002948608398437)" style="fill: rgb(49, 57, 90);"></path></g><g class="path" style="transform: scale(0.91); transform-origin: -15.335px -6.12205px; animation: 1s linear -0.33s infinite normal forwards running breath-34c5bd62-9aa3-493c-901c-bcf656fc4b8d;"><path d="M107.81-7.19L107.81 0L67.42 0L67.42-56.25L107.81-56.25L107.81-49.06L82.93-49.06L82.93-31.68L102.15-31.68L102.15-24.53L82.93-24.53L82.93-7.19L107.81-7.19" fill="#31395a" stroke="none" stroke-width="none" transform="translate(-102.95000076293945,22.002948608398437)" style="fill: rgb(29, 32, 49);"></path></g><g class="path" style="transform: scale(0.91); transform-origin: 32.735px -6.12205px; animation: 1s linear -0.165s infinite normal forwards running breath-34c5bd62-9aa3-493c-901c-bcf656fc4b8d;"><path d="M143.44-49.06L143.44 0L127.93 0L127.93-49.06L112.62-49.06L112.62-56.25L158.75-56.25L158.75-49.06L143.44-49.06" fill="#31395a" stroke="none" stroke-width="none" transform="translate(-102.95000076293945,22.002948608398437)" style="fill: rgb(92, 96, 126);"></path></g><g class="path" style="transform: scale(0.91); transform-origin: 84.59px -6.24205px; animation: 1s linear 0s infinite normal forwards running breath-34c5bd62-9aa3-493c-901c-bcf656fc4b8d;"><path d="M212.27-17.19L212.27-17.19L212.27-17.19Q212.27-13.55 211.35-10.78L211.35-10.78L211.35-10.78Q210.43-8.01 208.77-5.98L208.77-5.98L208.77-5.98Q207.11-3.95 204.84-2.58L204.84-2.58L204.84-2.58Q202.58-1.21 199.90-0.39L199.90-0.39L199.90-0.39Q197.23 0.43 194.24 0.78L194.24 0.78L194.24 0.78Q191.25 1.13 188.16 1.13L188.16 1.13L188.16 1.13Q184.10 1.13 180.66 0.53L180.66 0.53L180.66 0.53Q177.23-0.08 174.20-1.39L174.20-1.39L174.20-1.39Q171.17-2.70 168.38-4.77L168.38-4.77L168.38-4.77Q165.59-6.84 162.81-9.80L162.81-9.80L170.78-17.89L170.78-17.89Q171.88-15.20 173.79-12.91L173.79-12.91L173.79-12.91Q175.70-10.63 177.99-8.98L177.99-8.98L177.99-8.98Q180.27-7.34 182.73-6.41L182.73-6.41L182.73-6.41Q185.20-5.47 187.38-5.47L187.38-5.47L187.38-5.47Q189.96-5.47 192.23-5.84L192.23-5.84L192.23-5.84Q194.49-6.21 196.17-7.07L196.17-7.07L196.17-7.07Q197.85-7.93 198.81-9.36L198.81-9.36L198.81-9.36Q199.77-10.78 199.77-12.93L199.77-12.93L199.77-12.93Q199.77-14.57 199.02-15.74L199.02-15.74L199.02-15.74Q198.28-16.91 197.09-17.75L197.09-17.75L197.09-17.75Q195.90-18.59 194.38-19.18L194.38-19.18L194.38-19.18Q192.85-19.77 191.27-20.18L191.27-20.18L191.27-20.18Q189.69-20.59 188.16-20.92L188.16-20.92L188.16-20.92Q186.64-21.25 185.47-21.60L185.47-21.60L185.47-21.60Q183.16-22.27 180.66-23.03L180.66-23.03L180.66-23.03Q178.16-23.79 175.74-24.77L175.74-24.77L175.74-24.77Q173.32-25.74 171.15-27.01L171.15-27.01L171.15-27.01Q168.98-28.28 167.34-30.02L167.34-30.02L167.34-30.02Q165.70-31.76 164.73-34.04L164.73-34.04L164.73-34.04Q163.75-36.33 163.75-39.30L163.75-39.30L163.75-39.30Q163.75-42.85 164.63-45.61L164.63-45.61L164.63-45.61Q165.51-48.36 167.11-50.39L167.11-50.39L167.11-50.39Q168.71-52.42 170.90-53.81L170.90-53.81L170.90-53.81Q173.09-55.20 175.70-56.04L175.70-56.04L175.70-56.04Q178.32-56.88 181.27-57.25L181.27-57.25L181.27-57.25Q184.22-57.62 187.30-57.62L187.30-57.62L187.30-57.62Q191.52-57.62 194.98-56.84L194.98-56.84L194.98-56.84Q198.44-56.05 201.37-54.61L201.37-54.61L201.37-54.61Q204.30-53.16 206.74-51.15L206.74-51.15L206.74-51.15Q209.18-49.14 211.33-46.68L211.33-46.68L203.36-38.59L203.36-38.59Q202.42-41.41 200.76-43.67L200.76-43.67L200.76-43.67Q199.10-45.94 197.07-47.56L197.07-47.56L197.07-47.56Q195.04-49.18 192.81-50.06L192.81-50.06L192.81-50.06Q190.59-50.94 188.52-50.94L188.52-50.94L188.52-50.94Q185.82-50.94 183.55-50.57L183.55-50.57L183.55-50.57Q181.29-50.20 179.67-49.36L179.67-49.36L179.67-49.36Q178.05-48.52 177.15-47.09L177.15-47.09L177.15-47.09Q176.25-45.66 176.25-43.55L176.25-43.55L176.25-43.55Q176.25-41.88 176.91-40.70L176.91-40.70L176.91-40.70Q177.58-39.53 178.69-38.71L178.69-38.71L178.69-38.71Q179.80-37.89 181.21-37.36L181.21-37.36L181.21-37.36Q182.62-36.84 184.12-36.45L184.12-36.45L184.12-36.45Q185.63-36.05 187.09-35.76L187.09-35.76L187.09-35.76Q188.55-35.47 189.77-35.12L189.77-35.12L189.77-35.12Q192.11-34.45 194.69-33.71L194.69-33.71L194.69-33.71Q197.27-32.97 199.77-31.97L199.77-31.97L199.77-31.97Q202.27-30.98 204.53-29.69L204.53-29.69L204.53-29.69Q206.80-28.40 208.52-26.62L208.52-26.62L208.52-26.62Q210.23-24.84 211.25-22.52L211.25-22.52L211.25-22.52Q212.27-20.20 212.27-17.19" fill="#31395a" stroke="none" stroke-width="none" transform="translate(-102.95000076293945,22.002948608398437)" style="fill: rgb(168, 164, 185);"></path></g></g>
</g>
</g>
<style id="breath-34c5bd62-9aa3-493c-901c-bcf656fc4b8d" data-anikit="">@keyframes breath-34c5bd62-9aa3-493c-901c-bcf656fc4b8d
{
  0% {
    animation-timing-function: cubic-bezier(0.9647,0.2413,-0.0705,0.7911);
    transform: scale(0.9099999999999999);
  }
  51% {
    animation-timing-function: cubic-bezier(0.9226,0.2631,-0.0308,0.7628);
    transform: scale(1.02994);
  }
  100% {
    transform: scale(0.9099999999999999);
  }
}</style></svg>